<?xml version="1.0" standalone="no"?>
<!DOCTYPE svg PUBLIC "-//W3C//DTD SVG 20010904//EN"
 "http://www.w3.org/TR/2001/REC-SVG-20010904/DTD/svg10.dtd">
<svg version="1.0" xmlns="http://www.w3.org/2000/svg"
 width="4096.000000pt" height="4096.000000pt" viewBox="0 0 4096.000000 4096.000000"
 preserveAspectRatio="xMidYMid meet">
<metadata>
Created by potrace 1.14, written by Peter Selinger 2001-2017
</metadata>
<g transform="translate(0.000000,4096.000000) scale(0.100000,-0.100000)"
fill="#000000" stroke="none">
<path d="M19825 32420 c-687 -29 -1277 -82 -1900 -171 -2106 -300 -4157 -982
-6025 -2002 -3376 -1845 -6081 -4735 -7696 -8224 -889 -1919 -1430 -3996
-1593 -6118 -40 -508 -46 -699 -46 -1370 0 -674 5 -833 46 -1340 11 -137 24
-324 29 -415 4 -92 15 -190 24 -222 90 -327 354 -570 684 -628 59 -11 788 -11
3920 -1 2381 8 3879 16 3932 22 284 33 533 212 660 474 69 143 85 212 85 375
0 156 -16 228 -76 358 -110 239 -302 400 -567 475 l-77 22 -3455 5 -3455 5
-19 250 c-14 188 -19 361 -19 700 -1 461 8 703 44 1160 272 3533 1687 6851
4055 9512 427 480 1002 1047 1494 1474 1211 1050 2585 1922 4050 2572 1706
756 3533 1210 5400 1341 745 53 1575 53 2320 0 3568 -251 6933 -1672 9617
-4060 431 -384 943 -895 1329 -1329 2364 -2656 3784 -5987 4053 -9510 50 -646
60 -1319 28 -1800 -10 -148 -20 -280 -23 -292 l-4 -23 -3453 -2 -3452 -3 -77
-22 c-265 -75 -457 -236 -567 -475 -60 -130 -76 -202 -76 -358 0 -99 5 -154
19 -205 22 -83 81 -214 127 -282 135 -196 363 -334 599 -362 53 -6 1516 -14
3945 -22 4258 -13 3908 -17 4080 50 110 42 196 100 290 196 96 97 162 205 206
335 28 85 32 113 40 265 4 94 17 285 28 425 36 456 43 607 48 1152 6 542 -3
896 -32 1343 -201 3031 -1154 5928 -2793 8485 -894 1394 -2028 2710 -3284
3811 -2262 1983 -4996 3371 -7908 4013 -1023 226 -1896 343 -3030 407 -243 13
-1270 20 -1525 9z"/>
<path d="M15200 23025 c-403 -90 -670 -407 -672 -800 -1 -60 2 -121 6 -135 l7
-25 -20 25 c-11 14 -21 22 -21 18 0 -15 125 -865 195 -1318 608 -3950 1387
-7227 2203 -9267 181 -453 339 -778 486 -1002 736 -1125 1951 -1838 3361
-1973 169 -16 644 -16 810 1 1674 163 3070 1150 3696 2613 238 557 354 1202
319 1783 -35 594 -168 1090 -430 1610 -109 216 -171 320 -296 490 -543 745
-1613 1860 -2919 3041 -1170 1057 -2597 2233 -4200 3460 -598 458 -1786 1344
-1801 1344 -4 0 1 -12 11 -26 15 -23 9 -21 -45 16 -79 53 -185 103 -281 130
-97 29 -313 36 -409 15z m1995 -3249 c1979 -1539 3686 -3018 4885 -4232 589
-596 1021 -1081 1297 -1454 307 -416 463 -1004 412 -1560 -101 -1111 -954
-2027 -2099 -2254 -205 -41 -312 -50 -550 -50 -232 0 -352 12 -559 55 -409 84
-829 283 -1156 546 -192 155 -425 416 -553 618 -108 173 -330 704 -532 1275
-607 1714 -1232 4352 -1700 7170 -28 168 -53 318 -56 334 -7 33 -21 44 611
-448z"/>
</g>
</svg>
